<?xml version="1.0" encoding="UTF-8" standalone="no"?>
<!DOCTYPE svg PUBLIC "-//W3C//DTD SVG 1.1//EN"
 "http://www.w3.org/Graphics/SVG/1.1/DTD/svg11.dtd">
<!-- Generated by graphviz version 2.43.0 (0)
 -->
<!-- Title: D Pages: 1 -->
<svg width="250pt" height="332pt"
 viewBox="0.00 0.00 249.80 332.00" xmlns="http://www.w3.org/2000/svg" xmlns:xlink="http://www.w3.org/1999/xlink">
<g id="graph0" class="graph" transform="scale(1 1) rotate(0) translate(4 328)">
<title>D</title>
<polygon fill="white" stroke="transparent" points="-4,4 -4,-328 245.8,-328 245.8,4 -4,4"/>
<!-- 1 -->
<g id="node1" class="node">
<title>1</title>
<ellipse fill="none" stroke="black" cx="84.9" cy="-90" rx="27" ry="18"/>
<text text-anchor="middle" x="84.9" y="-85.8" font-family="Times,serif" font-size="14.00">Sort</text>
</g>
<!-- TableScan t1 -->
<g id="node6" class="node">
<title>TableScan t1</title>
<ellipse fill="none" stroke="black" cx="55.9" cy="-18" rx="55.8" ry="18"/>
<text text-anchor="middle" x="55.9" y="-13.8" font-family="Times,serif" font-size="14.00">TableScan t1</text>
</g>
<!-- 1&#45;&gt;TableScan t1 -->
<g id="edge4" class="edge">
<title>1&#45;&gt;TableScan t1</title>
<path fill="none" stroke="black" d="M78.03,-72.41C74.68,-64.34 70.58,-54.43 66.82,-45.35"/>
<polygon fill="black" stroke="black" points="69.99,-43.86 62.92,-35.96 63.52,-46.53 69.99,-43.86"/>
</g>
<!-- 2 -->
<g id="node2" class="node">
<title>2</title>
<ellipse fill="none" stroke="black" cx="170.9" cy="-90" rx="27" ry="18"/>
<text text-anchor="middle" x="170.9" y="-85.8" font-family="Times,serif" font-size="14.00">Sort</text>
</g>
<!-- TableScan t2 -->
<g id="node7" class="node">
<title>TableScan t2</title>
<ellipse fill="none" stroke="black" cx="185.9" cy="-18" rx="55.8" ry="18"/>
<text text-anchor="middle" x="185.9" y="-13.8" font-family="Times,serif" font-size="14.00">TableScan t2</text>
</g>
<!-- 2&#45;&gt;TableScan t2 -->
<g id="edge6" class="edge">
<title>2&#45;&gt;TableScan t2</title>
<path fill="none" stroke="black" d="M174.53,-72.05C176.2,-64.26 178.22,-54.82 180.1,-46.08"/>
<polygon fill="black" stroke="black" points="183.53,-46.79 182.2,-36.28 176.68,-45.32 183.53,-46.79"/>
</g>
<!-- SELECT -->
<g id="node3" class="node">
<title>SELECT</title>
<ellipse fill="none" stroke="black" cx="120.9" cy="-306" rx="42.56" ry="18"/>
<text text-anchor="middle" x="120.9" y="-301.8" font-family="Times,serif" font-size="14.00">SELECT</text>
</g>
<!-- Hash Aggregate -->
<g id="node4" class="node">
<title>Hash Aggregate</title>
<ellipse fill="none" stroke="black" cx="120.9" cy="-234" rx="66.68" ry="18"/>
<text text-anchor="middle" x="120.9" y="-229.8" font-family="Times,serif" font-size="14.00">Hash Aggregate</text>
</g>
<!-- SELECT&#45;&gt;Hash Aggregate -->
<g id="edge1" class="edge">
<title>SELECT&#45;&gt;Hash Aggregate</title>
<path fill="none" stroke="black" d="M120.9,-287.7C120.9,-279.98 120.9,-270.71 120.9,-262.11"/>
<polygon fill="black" stroke="black" points="124.4,-262.1 120.9,-252.1 117.4,-262.1 124.4,-262.1"/>
</g>
<!-- Merge Join on t1.a = t2.a -->
<g id="node5" class="node">
<title>Merge Join on t1.a = t2.a</title>
<ellipse fill="none" stroke="black" cx="120.9" cy="-162" rx="98.88" ry="18"/>
<text text-anchor="middle" x="120.9" y="-157.8" font-family="Times,serif" font-size="14.00">Merge Join on t1.a = t2.a</text>
</g>
<!-- Hash Aggregate&#45;&gt;Merge Join on t1.a = t2.a -->
<g id="edge2" class="edge">
<title>Hash Aggregate&#45;&gt;Merge Join on t1.a = t2.a</title>
<path fill="none" stroke="black" d="M120.9,-215.7C120.9,-207.98 120.9,-198.71 120.9,-190.11"/>
<polygon fill="black" stroke="black" points="124.4,-190.1 120.9,-180.1 117.4,-190.1 124.4,-190.1"/>
</g>
<!-- Merge Join on t1.a = t2.a&#45;&gt;1 -->
<g id="edge3" class="edge">
<title>Merge Join on t1.a = t2.a&#45;&gt;1</title>
<path fill="none" stroke="black" d="M112.19,-144.05C107.92,-135.77 102.7,-125.62 97.98,-116.42"/>
<polygon fill="black" stroke="black" points="100.97,-114.6 93.29,-107.31 94.75,-117.8 100.97,-114.6"/>
</g>
<!-- Merge Join on t1.a = t2.a&#45;&gt;2 -->
<g id="edge5" class="edge">
<title>Merge Join on t1.a = t2.a&#45;&gt;2</title>
<path fill="none" stroke="black" d="M133,-144.05C139.2,-135.38 146.85,-124.67 153.65,-115.15"/>
<polygon fill="black" stroke="black" points="156.63,-117 159.59,-106.83 150.93,-112.93 156.63,-117"/>
</g>
</g>
</svg>
