<?xml version="1.0" encoding="UTF-8" standalone="no"?>
<!DOCTYPE svg PUBLIC "-//W3C//DTD SVG 1.1//EN"
 "http://www.w3.org/Graphics/SVG/1.1/DTD/svg11.dtd">
<!-- Generated by graphviz version 2.43.0 (0)
 -->
<!-- Title: D Pages: 1 -->
<svg width="194pt" height="237pt"
 viewBox="0.00 0.00 194.24 237.06" xmlns="http://www.w3.org/2000/svg" xmlns:xlink="http://www.w3.org/1999/xlink">
<g id="graph0" class="graph" transform="scale(1 1) rotate(0) translate(4 233.06)">
<title>D</title>
<polygon fill="white" stroke="transparent" points="-4,4 -4,-233.06 190.24,-233.06 190.24,4 -4,4"/>
<!-- SELECT -->
<g id="node1" class="node">
<title>SELECT</title>
<ellipse fill="none" stroke="black" cx="93.12" cy="-186.53" rx="42.56" ry="42.56"/>
<text text-anchor="middle" x="93.12" y="-182.33" font-family="Times,serif" font-size="14.00">SELECT</text>
</g>
<!-- Hash Aggregate on t1.a -->
<g id="node2" class="node">
<title>Hash Aggregate on t1.a</title>
<ellipse fill="none" stroke="black" cx="93.12" cy="-90" rx="93.24" ry="18"/>
<text text-anchor="middle" x="93.12" y="-85.8" font-family="Times,serif" font-size="14.00">Hash Aggregate on t1.a</text>
</g>
<!-- SELECT&#45;&gt;Hash Aggregate on t1.a -->
<g id="edge1" class="edge">
<title>SELECT&#45;&gt;Hash Aggregate on t1.a</title>
<path fill="none" stroke="black" d="M93.12,-143.79C93.12,-135.22 93.12,-126.41 93.12,-118.5"/>
<polygon fill="black" stroke="black" points="96.62,-118.37 93.12,-108.37 89.62,-118.37 96.62,-118.37"/>
</g>
<!-- TableScan t1 -->
<g id="node3" class="node">
<title>TableScan t1</title>
<ellipse fill="none" stroke="black" cx="93.12" cy="-18" rx="55.8" ry="18"/>
<text text-anchor="middle" x="93.12" y="-13.8" font-family="Times,serif" font-size="14.00">TableScan t1</text>
</g>
<!-- Hash Aggregate on t1.a&#45;&gt;TableScan t1 -->
<g id="edge2" class="edge">
<title>Hash Aggregate on t1.a&#45;&gt;TableScan t1</title>
<path fill="none" stroke="black" d="M93.12,-71.7C93.12,-63.98 93.12,-54.71 93.12,-46.11"/>
<polygon fill="black" stroke="black" points="96.62,-46.1 93.12,-36.1 89.62,-46.1 96.62,-46.1"/>
</g>
</g>
</svg>
