<?xml version="1.0" encoding="UTF-8" standalone="no"?>
<!DOCTYPE svg PUBLIC "-//W3C//DTD SVG 1.1//EN"
 "http://www.w3.org/Graphics/SVG/1.1/DTD/svg11.dtd">
<!-- Generated by graphviz version 2.43.0 (0)
 -->
<!-- Title: D Pages: 1 -->
<svg width="252pt" height="260pt"
 viewBox="0.00 0.00 252.04 260.00" xmlns="http://www.w3.org/2000/svg" xmlns:xlink="http://www.w3.org/1999/xlink">
<g id="graph0" class="graph" transform="scale(1 1) rotate(0) translate(4 256)">
<title>D</title>
<polygon fill="white" stroke="transparent" points="-4,4 -4,-256 248.04,-256 248.04,4 -4,4"/>
<!-- SELECT -->
<g id="node1" class="node">
<title>SELECT</title>
<ellipse fill="none" stroke="black" cx="121.52" cy="-234" rx="42.56" ry="18"/>
<text text-anchor="middle" x="121.52" y="-229.8" font-family="Times,serif" font-size="14.00">SELECT</text>
</g>
<!-- Hash Aggregate -->
<g id="node2" class="node">
<title>Hash Aggregate</title>
<ellipse fill="none" stroke="black" cx="121.52" cy="-162" rx="66.68" ry="18"/>
<text text-anchor="middle" x="121.52" y="-157.8" font-family="Times,serif" font-size="14.00">Hash Aggregate</text>
</g>
<!-- SELECT&#45;&gt;Hash Aggregate -->
<g id="edge1" class="edge">
<title>SELECT&#45;&gt;Hash Aggregate</title>
<path fill="none" stroke="black" d="M121.52,-215.7C121.52,-207.98 121.52,-198.71 121.52,-190.11"/>
<polygon fill="black" stroke="black" points="125.02,-190.1 121.52,-180.1 118.02,-190.1 125.02,-190.1"/>
</g>
<!-- Merge Join on t1.a = t2.a -->
<g id="node3" class="node">
<title>Merge Join on t1.a = t2.a</title>
<ellipse fill="none" stroke="black" cx="121.52" cy="-90" rx="98.88" ry="18"/>
<text text-anchor="middle" x="121.52" y="-85.8" font-family="Times,serif" font-size="14.00">Merge Join on t1.a = t2.a</text>
</g>
<!-- Hash Aggregate&#45;&gt;Merge Join on t1.a = t2.a -->
<g id="edge2" class="edge">
<title>Hash Aggregate&#45;&gt;Merge Join on t1.a = t2.a</title>
<path fill="none" stroke="black" d="M121.52,-143.7C121.52,-135.98 121.52,-126.71 121.52,-118.11"/>
<polygon fill="black" stroke="black" points="125.02,-118.1 121.52,-108.1 118.02,-118.1 125.02,-118.1"/>
</g>
<!-- IndexScan t1 -->
<g id="node4" class="node">
<title>IndexScan t1</title>
<ellipse fill="none" stroke="black" cx="56.52" cy="-18" rx="56.54" ry="18"/>
<text text-anchor="middle" x="56.52" y="-13.8" font-family="Times,serif" font-size="14.00">IndexScan t1</text>
</g>
<!-- Merge Join on t1.a = t2.a&#45;&gt;IndexScan t1 -->
<g id="edge3" class="edge">
<title>Merge Join on t1.a = t2.a&#45;&gt;IndexScan t1</title>
<path fill="none" stroke="black" d="M105.79,-72.05C97.8,-63.46 87.96,-52.86 79.18,-43.4"/>
<polygon fill="black" stroke="black" points="81.48,-40.74 72.11,-35.79 76.35,-45.5 81.48,-40.74"/>
</g>
<!-- IndexScan t2 -->
<g id="node5" class="node">
<title>IndexScan t2</title>
<ellipse fill="none" stroke="black" cx="187.52" cy="-18" rx="56.54" ry="18"/>
<text text-anchor="middle" x="187.52" y="-13.8" font-family="Times,serif" font-size="14.00">IndexScan t2</text>
</g>
<!-- Merge Join on t1.a = t2.a&#45;&gt;IndexScan t2 -->
<g id="edge4" class="edge">
<title>Merge Join on t1.a = t2.a&#45;&gt;IndexScan t2</title>
<path fill="none" stroke="black" d="M137.5,-72.05C145.69,-63.37 155.8,-52.64 164.79,-43.11"/>
<polygon fill="black" stroke="black" points="167.38,-45.47 171.69,-35.79 162.29,-40.66 167.38,-45.47"/>
</g>
</g>
</svg>
