<?xml version="1.0" encoding="UTF-8" standalone="no"?>
<!DOCTYPE svg PUBLIC "-//W3C//DTD SVG 1.1//EN"
 "http://www.w3.org/Graphics/SVG/1.1/DTD/svg11.dtd">
<!-- Generated by graphviz version 2.43.0 (0)
 -->
<!-- Title: D Pages: 1 -->
<svg width="250pt" height="332pt"
 viewBox="0.00 0.00 249.80 332.00" xmlns="http://www.w3.org/2000/svg" xmlns:xlink="http://www.w3.org/1999/xlink">
<g id="graph0" class="graph" transform="scale(1 1) rotate(0) translate(4 328)">
<title>D</title>
<polygon fill="white" stroke="transparent" points="-4,4 -4,-328 245.8,-328 245.8,4 -4,4"/>
<!-- SELECT -->
<g id="node1" class="node">
<title>SELECT</title>
<ellipse fill="none" stroke="black" cx="120.9" cy="-306" rx="42.56" ry="18"/>
<text text-anchor="middle" x="120.9" y="-301.8" font-family="Times,serif" font-size="14.00">SELECT</text>
</g>
<!-- Stream Aggregate -->
<g id="node2" class="node">
<title>Stream Aggregate</title>
<ellipse fill="none" stroke="black" cx="120.9" cy="-234" rx="73.93" ry="18"/>
<text text-anchor="middle" x="120.9" y="-229.8" font-family="Times,serif" font-size="14.00">Stream Aggregate</text>
</g>
<!-- SELECT&#45;&gt;Stream Aggregate -->
<g id="edge1" class="edge">
<title>SELECT&#45;&gt;Stream Aggregate</title>
<path fill="none" stroke="black" d="M120.9,-287.7C120.9,-279.98 120.9,-270.71 120.9,-262.11"/>
<polygon fill="black" stroke="black" points="124.4,-262.1 120.9,-252.1 117.4,-262.1 124.4,-262.1"/>
</g>
<!-- sort -->
<g id="node3" class="node">
<title>sort</title>
<ellipse fill="none" stroke="black" cx="120.9" cy="-162" rx="27" ry="18"/>
<text text-anchor="middle" x="120.9" y="-157.8" font-family="Times,serif" font-size="14.00">sort</text>
</g>
<!-- Stream Aggregate&#45;&gt;sort -->
<g id="edge2" class="edge">
<title>Stream Aggregate&#45;&gt;sort</title>
<path fill="none" stroke="black" d="M120.9,-215.7C120.9,-207.98 120.9,-198.71 120.9,-190.11"/>
<polygon fill="black" stroke="black" points="124.4,-190.1 120.9,-180.1 117.4,-190.1 124.4,-190.1"/>
</g>
<!-- Hash Join on t1.a = t2.a -->
<g id="node4" class="node">
<title>Hash Join on t1.a = t2.a</title>
<ellipse fill="none" stroke="black" cx="120.9" cy="-90" rx="93.88" ry="18"/>
<text text-anchor="middle" x="120.9" y="-85.8" font-family="Times,serif" font-size="14.00">Hash Join on t1.a = t2.a</text>
</g>
<!-- sort&#45;&gt;Hash Join on t1.a = t2.a -->
<g id="edge3" class="edge">
<title>sort&#45;&gt;Hash Join on t1.a = t2.a</title>
<path fill="none" stroke="black" d="M120.9,-143.7C120.9,-135.98 120.9,-126.71 120.9,-118.11"/>
<polygon fill="black" stroke="black" points="124.4,-118.1 120.9,-108.1 117.4,-118.1 124.4,-118.1"/>
</g>
<!-- TableScan t1 -->
<g id="node5" class="node">
<title>TableScan t1</title>
<ellipse fill="none" stroke="black" cx="55.9" cy="-18" rx="55.8" ry="18"/>
<text text-anchor="middle" x="55.9" y="-13.8" font-family="Times,serif" font-size="14.00">TableScan t1</text>
</g>
<!-- Hash Join on t1.a = t2.a&#45;&gt;TableScan t1 -->
<g id="edge4" class="edge">
<title>Hash Join on t1.a = t2.a&#45;&gt;TableScan t1</title>
<path fill="none" stroke="black" d="M105.17,-72.05C97.18,-63.46 87.34,-52.86 78.55,-43.4"/>
<polygon fill="black" stroke="black" points="80.86,-40.74 71.49,-35.79 75.73,-45.5 80.86,-40.74"/>
</g>
<!-- TableScan t2 -->
<g id="node6" class="node">
<title>TableScan t2</title>
<ellipse fill="none" stroke="black" cx="185.9" cy="-18" rx="55.8" ry="18"/>
<text text-anchor="middle" x="185.9" y="-13.8" font-family="Times,serif" font-size="14.00">TableScan t2</text>
</g>
<!-- Hash Join on t1.a = t2.a&#45;&gt;TableScan t2 -->
<g id="edge5" class="edge">
<title>Hash Join on t1.a = t2.a&#45;&gt;TableScan t2</title>
<path fill="none" stroke="black" d="M136.63,-72.05C144.62,-63.46 154.46,-52.86 163.25,-43.4"/>
<polygon fill="black" stroke="black" points="166.07,-45.5 170.31,-35.79 160.94,-40.74 166.07,-45.5"/>
</g>
</g>
</svg>
