<?xml version="1.0" encoding="UTF-8" standalone="no"?>
<!DOCTYPE svg PUBLIC "-//W3C//DTD SVG 1.1//EN"
 "http://www.w3.org/Graphics/SVG/1.1/DTD/svg11.dtd">
<!-- Generated by graphviz version 2.43.0 (0)
 -->
<!-- Title: D Pages: 1 -->
<svg width="208pt" height="237pt"
 viewBox="0.00 0.00 207.98 237.06" xmlns="http://www.w3.org/2000/svg" xmlns:xlink="http://www.w3.org/1999/xlink">
<g id="graph0" class="graph" transform="scale(1 1) rotate(0) translate(4 233.06)">
<title>D</title>
<polygon fill="white" stroke="transparent" points="-4,4 -4,-233.06 203.98,-233.06 203.98,4 -4,4"/>
<!-- SELECT -->
<g id="node1" class="node">
<title>SELECT</title>
<ellipse fill="none" stroke="black" cx="99.99" cy="-186.53" rx="42.56" ry="42.56"/>
<text text-anchor="middle" x="99.99" y="-182.33" font-family="Times,serif" font-size="14.00">SELECT</text>
</g>
<!-- Stream Aggregate on t1.a -->
<g id="node2" class="node">
<title>Stream Aggregate on t1.a</title>
<ellipse fill="none" stroke="black" cx="99.99" cy="-90" rx="99.98" ry="18"/>
<text text-anchor="middle" x="99.99" y="-85.8" font-family="Times,serif" font-size="14.00">Stream Aggregate on t1.a</text>
</g>
<!-- SELECT&#45;&gt;Stream Aggregate on t1.a -->
<g id="edge1" class="edge">
<title>SELECT&#45;&gt;Stream Aggregate on t1.a</title>
<path fill="none" stroke="black" d="M99.99,-143.79C99.99,-135.22 99.99,-126.41 99.99,-118.5"/>
<polygon fill="black" stroke="black" points="103.49,-118.37 99.99,-108.37 96.49,-118.37 103.49,-118.37"/>
</g>
<!-- IndexScan t1 -->
<g id="node3" class="node">
<title>IndexScan t1</title>
<ellipse fill="none" stroke="black" cx="99.99" cy="-18" rx="56.54" ry="18"/>
<text text-anchor="middle" x="99.99" y="-13.8" font-family="Times,serif" font-size="14.00">IndexScan t1</text>
</g>
<!-- Stream Aggregate on t1.a&#45;&gt;IndexScan t1 -->
<g id="edge2" class="edge">
<title>Stream Aggregate on t1.a&#45;&gt;IndexScan t1</title>
<path fill="none" stroke="black" d="M99.99,-71.7C99.99,-63.98 99.99,-54.71 99.99,-46.11"/>
<polygon fill="black" stroke="black" points="103.49,-46.1 99.99,-36.1 96.49,-46.1 103.49,-46.1"/>
</g>
</g>
</svg>
